<svg id="Capa_1" enable-background="new 0 0 512 512" height="512" viewBox="0 0 512 512" width="512" xmlns="http://www.w3.org/2000/svg"><g><path d="m343.696 290.269c-1.595-1.459-3.355-2.774-5.282-3.901-6.939-4.059-14.896-5.175-22.413-3.361v-19.889c27.182-18.996 45-50.513 45-86.117v-56.738l24.723-30.903c13.328-16.66 15.866-38.954 6.624-58.184-9.243-19.231-28.238-31.176-49.573-31.176h-126.775c-35.841 0-65 29.159-65 65v50 62c0 35.604 17.818 67.121 45 86.117v19.889c-7.517-1.814-15.474-.697-22.413 3.362-1.928 1.127-3.687 2.443-5.282 3.901-59.791 3.985-107.305 54.023-107.305 114.731v92c0 8.284 6.716 15 15 15h360c8.284 0 15-6.716 15-15v-92c0-60.708-47.514-110.746-107.304-114.731zm17.304 191.731h-210v-76.786l21.409-27.071c.389.251.775.505 1.177.74 4.8 2.807 10.086 4.212 15.376 4.212 5.123 0 10.251-1.318 14.943-3.958l52.095-29.301 52.094 29.302c4.693 2.64 9.819 3.958 14.943 3.958 5.29 0 10.577-1.406 15.376-4.212.403-.235.789-.49 1.177-.74l21.41 27.07zm-171.802-169.74 36.206 20.366-36.206 20.365c-.157.088-.234.132-.466-.004-.232-.135-.232-.225-.232-.404v-39.914c0-.179 0-.269.232-.405.105-.062.179-.086.243-.086.077 0 .138.034.223.082zm134.07.004c.232.136.232.226.232.405v39.914c0 .179 0 .269-.232.404-.231.136-.309.092-.466.004l-36.206-20.365 36.206-20.366c.156-.088.235-.132.466.004zm-142.268-247.264c0-19.299 15.701-35 35-35h126.775c9.845 0 18.268 5.297 22.533 14.17s3.139 18.76-3.011 26.447l-23.506 29.383h-38.073c-21.867 0-41.527-12.15-51.306-31.708-2.541-5.082-7.736-8.292-13.417-8.292s-10.875 3.21-13.416 8.292c-8.303 16.606-23.727 27.871-41.579 30.894zm0 112v-47.535c21.391-2.35 40.831-12.391 54.996-28.076 16.285 18.033 39.543 28.611 64.722 28.611h30.282v47c0 41.355-33.645 75-75 75s-75-33.645-75-75zm75 105c10.421 0 20.49-1.533 30-4.374v20.915l-30 16.875-30-16.875v-20.915c9.51 2.84 19.579 4.374 30 4.374zm-165 123c0-40.791 29.022-75.069 67.5-83.177v25.546l-34.265 43.327c-2.095 2.648-3.235 5.927-3.235 9.304v82h-30zm330 77h-30v-82c0-3.377-1.14-6.656-3.235-9.305l-34.265-43.326v-25.546c38.478 8.108 67.5 42.386 67.5 83.177z"/><circle cx="256" cy="394" r="15"/><circle cx="256" cy="444" r="15"/></g></svg>