<?xml version="1.0" encoding="iso-8859-1"?>
<!-- Generator: Adobe Illustrator 19.0.0, SVG Export Plug-In . SVG Version: 6.00 Build 0)  -->
<svg version="1.1" id="Capa_1" xmlns="http://www.w3.org/2000/svg" xmlns:xlink="http://www.w3.org/1999/xlink" x="0px" y="0px"
	 viewBox="0 0 512 512" style="enable-background:new 0 0 512 512;" xml:space="preserve">
<g>
	<rect x="31.892" y="142.57" style="fill:#D6E6FD;" width="64.03" height="334.11"/>
	<rect x="160.19" y="142.57" style="fill:#D6E6FD;" width="64.03" height="334.11"/>
</g>
<g>
	<rect x="288.49" y="142.57" style="fill:#A1B8D8;" width="64.03" height="334.11"/>
	<rect x="416.79" y="142.57" style="fill:#A1B8D8;" width="64.03" height="334.11"/>
</g>
<polygon style="fill:#6C819F;" points="512,107.252 235.984,87.236 256,171.038 512,171.038 "/>
<g>
	<polygon style="fill:#A1B8D8;" points="0,107.252 0,171.038 256,171.038 256,87.236 	"/>
	<polygon style="fill:#A1B8D8;" points="512,107.252 256,0 235.984,57.668 256,107.252 	"/>
</g>
<polygon style="fill:#D6E6FD;" points="256,0 0,107.252 256,107.252 "/>
<polygon style="fill:#6C819F;" points="512,512 512,448.215 256,448.215 235.984,480.107 256,512 "/>
<rect y="448.21" style="fill:#A1B8D8;" width="256" height="63.785"/>
<g>
</g>
<g>
</g>
<g>
</g>
<g>
</g>
<g>
</g>
<g>
</g>
<g>
</g>
<g>
</g>
<g>
</g>
<g>
</g>
<g>
</g>
<g>
</g>
<g>
</g>
<g>
</g>
<g>
</g>
</svg>
