<?xml version="1.0" encoding="iso-8859-1"?>
<!-- Generator: Adobe Illustrator 18.0.0, SVG Export Plug-In . SVG Version: 6.00 Build 0)  -->
<!DOCTYPE svg PUBLIC "-//W3C//DTD SVG 1.1//EN" "http://www.w3.org/Graphics/SVG/1.1/DTD/svg11.dtd">
<svg version="1.1" id="Capa_1" xmlns="http://www.w3.org/2000/svg" xmlns:xlink="http://www.w3.org/1999/xlink" x="0px" y="0px"
	 viewBox="0 0 234.098 234.098" style="enable-background:new 0 0 234.098 234.098;" xml:space="preserve">
<path d="M207.565,119.766c5.168,0,10.149,1.914,14.027,5.389c2.204,1.974,5.362,2.468,8.063,1.262
	c2.702-1.207,4.441-3.889,4.441-6.848v-64.46c0-4.142-3.358-7.5-7.5-7.5h-51.572c1.245-3.682,1.895-7.571,1.895-11.529
	C176.92,16.185,160.734,0,140.84,0s-36.079,16.185-36.079,36.079c0,3.956,0.65,7.845,1.898,11.529H55.108
	c-4.142,0-7.5,3.358-7.5,7.5v51.562c-3.688-1.252-7.579-1.905-11.533-1.905c-19.892,0-36.074,16.188-36.074,36.087
	c0,19.903,16.183,36.095,36.074,36.095c3.954,0,7.846-0.653,11.533-1.904v51.555c0,4.142,3.358,7.5,7.5,7.5h64.443
	c0.008,0.001,0.013,0.001,0.02,0c4.142,0,7.5-3.358,7.5-7.5c0-2.069-0.838-3.943-2.193-5.3c-3.303-3.831-5.117-8.691-5.117-13.729
	c0-11.623,9.456-21.078,21.079-21.078c11.629,0,21.091,9.456,21.091,21.078c0,5.171-1.912,10.151-5.384,14.02
	c-1.977,2.203-2.473,5.362-1.267,8.066c1.207,2.703,3.889,4.443,6.849,4.443h64.468c4.142,0,7.5-3.358,7.5-7.5v-64.452
	c0-2.959-1.74-5.641-4.441-6.848c-2.702-1.206-5.861-0.711-8.063,1.263c-3.877,3.474-8.859,5.387-14.027,5.387
	c-11.622,0-21.076-9.463-21.076-21.095C186.489,129.225,195.943,119.766,207.565,119.766z M207.565,176.947
	c3.957,0,7.847-0.651,11.532-1.901v44.051h-44.065c1.248-3.683,1.899-7.572,1.899-11.529c0-19.894-16.19-36.078-36.091-36.078
	c-19.894,0-36.079,16.185-36.079,36.078c0,3.956,0.65,7.845,1.898,11.529H62.608v-56.952c0-2.957-1.738-5.638-4.437-6.846
	c-2.7-1.208-5.856-0.716-8.061,1.254c-3.892,3.478-8.876,5.393-14.035,5.393c-11.621,0-21.074-9.463-21.074-21.095
	c0-11.627,9.454-21.087,21.074-21.087c5.159,0,10.143,1.916,14.035,5.395c2.205,1.97,5.361,2.462,8.061,1.254
	c2.699-1.208,4.437-3.889,4.437-6.846v-56.96h56.943c2.958,0,5.64-1.738,6.847-4.438c1.207-2.701,0.715-5.858-1.257-8.063
	c-3.469-3.877-5.379-8.859-5.379-14.028c0-11.623,9.456-21.079,21.079-21.079c11.623,0,21.079,9.456,21.079,21.079
	c0,5.179-1.908,10.159-5.373,14.021c-1.976,2.203-2.472,5.362-1.266,8.065c1.206,2.703,3.889,4.443,6.849,4.443h56.968v44.059
	c-3.685-1.25-7.576-1.901-11.532-1.901c-19.893,0-36.076,16.188-36.076,36.087C171.489,160.755,187.672,176.947,207.565,176.947z"/>
<g>
</g>
<g>
</g>
<g>
</g>
<g>
</g>
<g>
</g>
<g>
</g>
<g>
</g>
<g>
</g>
<g>
</g>
<g>
</g>
<g>
</g>
<g>
</g>
<g>
</g>
<g>
</g>
<g>
</g>
</svg>
