<svg id="Layer_1" enable-background="new 0 0 507.368 507.368" height="512" viewBox="0 0 507.368 507.368" width="512" 
    xmlns="http://www.w3.org/2000/svg">
    <path d="m420.372 0h-333.375c-9.107 0-16.49 7.383-16.49 16.49v474.388c0 9.107 7.383 16.49 16.49 16.49h333.375c9.107 0 16.49-7.383 16.49-16.49v-474.388c0-9.107-7.383-16.49-16.49-16.49z" fill="#f5f6fa"/>
    <path d="m420.372 0h-333.375c-9.107 0-16.49 7.383-16.49 16.49v249.685c75.354-7.169 187.272.707 291.761 79.341 24.456 18.405 49.535 27.819 74.594 30.354v-359.38c0-9.107-7.383-16.49-16.49-16.49z" fill="#f5f6fa"/>
    <path d="m420.372 0h-333.375c-9.107 0-16.49 7.383-16.49 16.49v175.742c60.139 24.11 145.306 32.947 221.976-51.279 50.711-55.708 101.065-59.441 144.38-42.054v-82.409c-.001-9.107-7.384-16.49-16.491-16.49z" fill="#f5f6fa"/>
    <g fill="#18a4e0">
        <path d="m161.288 111.615h184.793c9.107 0 16.49-7.383 16.49-16.491s-7.383-16.491-16.49-16.491h-184.793c-9.107 0-16.49 7.383-16.49 16.491s7.382 16.491 16.49 16.491z"/>
        <path d="m161.288 171.175h58.432c9.107 0 16.49-7.383 16.49-16.49s-7.383-16.49-16.49-16.49h-58.432c-9.107 0-16.49 7.383-16.49 16.49s7.382 16.49 16.49 16.49z"/>
        <path d="m346.081 138.194h-58.432c-9.107 0-16.49 7.383-16.49 16.49s7.383 16.49 16.49 16.49h58.432c9.107 0 16.49-7.383 16.49-16.49s-7.383-16.49-16.49-16.49z"/>
        <path d="m161.288 230.735h58.432c9.107 0 16.49-7.383 16.49-16.49s-7.383-16.49-16.49-16.49h-58.432c-9.107 0-16.49 7.383-16.49 16.49s7.382 16.49 16.49 16.49z"/>
        <path d="m346.081 197.754h-58.432c-9.107 0-16.49 7.383-16.49 16.49s7.383 16.49 16.49 16.49h58.432c9.107 0 16.49-7.383 16.49-16.49s-7.383-16.49-16.49-16.49z"/>
        <path d="m161.288 309.614h184.793c9.107 0 16.49-7.383 16.49-16.491s-7.383-16.491-16.49-16.491h-184.793c-9.107 0-16.49 7.383-16.49 16.491s7.382 16.491 16.49 16.491z"/>
        <path d="m161.288 369.174h58.432c9.107 0 16.49-7.383 16.49-16.49s-7.383-16.49-16.49-16.49h-58.432c-9.107 0-16.49 7.383-16.49 16.49s7.382 16.49 16.49 16.49z"/>
        <path d="m346.081 336.193h-58.432c-9.107 0-16.49 7.383-16.49 16.49s7.383 16.49 16.49 16.49h58.432c9.107 0 16.49-7.383 16.49-16.49s-7.383-16.49-16.49-16.49z"/>
        <path d="m161.288 428.734h58.432c9.107 0 16.49-7.383 16.49-16.49s-7.383-16.49-16.49-16.49h-58.432c-9.107 0-16.49 7.383-16.49 16.49s7.382 16.49 16.49 16.49z"/>
        <path d="m346.081 395.753h-58.432c-9.107 0-16.49 7.383-16.49 16.49s7.383 16.49 16.49 16.49h58.432c9.107 0 16.49-7.383 16.49-16.49s-7.383-16.49-16.49-16.49z"/>
    </g>
</svg>