<svg height="512pt" viewBox="-61 0 512 512" width="512pt" xmlns="http://www.w3.org/2000/svg"><path d="m330 165v-60c0-57.898438-47.101562-105-105-105h-60c-57.898438 0-105 47.101562-105 105v60c0 74.4375 60.5625 135 135 135s135-60.5625 135-135zm-165-135h60c36.21875 0 66.523438 25.808594 73.492188 60h-206.984376c6.96875-34.191406 37.273438-60 73.492188-60zm132.421875 90c-6.195313 17.457031-22.867187 30-42.421875 30h-120c-19.554688 0-36.226562-12.542969-42.421875-30zm-102.421875 150c-57.898438 0-105-47.101562-105-105v-.039062c12.542969 9.4375 28.128906 15.039062 45 15.039062h120c16.871094 0 32.457031-5.601562 45-15.039062v.039062c0 57.898438-47.101562 105-105 105zm0 0"/><path d="m195 210c-12.019531 0-23.320312-4.679688-31.820312-13.179688l-21.210938 21.210938c14.164062 14.167969 33 21.96875 53.03125 21.96875s38.867188-7.800781 53.03125-21.96875l-21.210938-21.210938c-8.5 8.5-19.800781 13.179688-31.820312 13.179688zm0 0"/><path d="m315 300h-240c-41.355469 0-75 33.644531-75 75v137h390v-137c0-41.355469-33.644531-75-75-75zm-135 90h30v30h-30zm60 60v-60h60v92h-210v-92h60v60zm120 32h-30v-122h-270v122h-30v-107c0-24.8125 20.1875-45 45-45h240c24.8125 0 45 20.1875 45 45zm0 0"/></svg>