<svg height="512pt" viewBox="-59 0 511 512" width="512pt" xmlns="http://www.w3.org/2000/svg"><path d="m317.5 56.25-59.925781-44.945312-61.074219 45.054687-61.074219-45.054687-59.925781 44.945312-75-56.25v512l75-56.25 59.925781 44.945312 61.074219-45.054687 61.074219 45.054687 59.925781-44.945312 75 56.25v-512zm0 0" fill="#f3eee9"/><path d="m317.5 56.25-59.925781-44.945312-61.074219 45.054687v399.28125l61.074219 45.054687 59.925781-44.945312 75 56.25v-512zm0 0" fill="#e9dfda"/><path d="m105 211c-8.269531 0-15-6.730469-15-15s6.730469-15 15-15 15 6.730469 15 15h30c0-19.554688-12.539062-36.226562-30-42.421875v-32.578125h-30v32.578125c-17.460938 6.195313-30 22.867187-30 42.421875 0 24.8125 20.1875 45 45 45 8.269531 0 15 6.730469 15 15s-6.730469 15-15 15-15-6.730469-15-15h-30c0 19.554688 12.539062 36.226562 30 42.421875v32.578125h30v-32.578125c17.460938-6.195313 30-22.867187 30-42.421875 0-24.8125-20.1875-45-45-45zm0 0" fill="#ff4b00"/><g fill="#dad0cb"><path d="m196.5 120h121v30h-121zm0 0"/><path d="m196.5 180h121v30h-121zm0 0"/><path d="m196.5 362h121v30h-121zm0 0"/></g></svg>