<?xml version="1.0" encoding="iso-8859-1"?>
<!-- Generator: Adobe Illustrator 19.0.0, SVG Export Plug-In . SVG Version: 6.00 Build 0)  -->
<svg version="1.1" id="Capa_1" xmlns="http://www.w3.org/2000/svg" xmlns:xlink="http://www.w3.org/1999/xlink" x="0px" y="0px"
	 viewBox="0 0 512 512" style="enable-background:new 0 0 512 512;" xml:space="preserve">
<path style="fill:#5dbfe9;" d="M370.302,455.499l-9.001,32.401C329.198,502.599,293.5,512,256,512s-73.198-9.401-105.3-24.101
	l-12.297-36.301l36.899-76.199L206.5,364.9c15,6.899,31.798,11.1,49.501,11.1s34.501-4.2,49.501-11.1l26.7,7.5L370.302,455.499z"/>
<path style="fill:#18a4e0;" d="M332.201,372.4l38.101,83.099l-9.001,32.401C329.198,502.599,293.5,512,256,512V376
	c17.703,0,34.501-4.2,49.501-11.1L332.201,372.4z"/>
<path style="fill:#5dbfe9;" d="M147.008,206.457l-12.261-26.708l-84.375-40.626l-26.287,11.461C9.401,182.76,0,217.383,0,255
	s9.401,74.239,24.086,106.414l31.289,13.96l83.753-39.999l7.881-29.833C140.091,290.395,136,273.71,136,256
	S140.091,221.604,147.008,206.457z"/>
<path style="fill:#18a4e0;" d="M487.914,150.584l-52.537-5.209l-56.88,30l-13.506,31.082C371.909,221.604,376,238.29,376,256
	s-4.091,34.395-11.008,49.541L370.998,331l88.125,38.749l28.792-8.335C502.599,329.239,512,293.617,512,256
	S502.599,182.76,487.914,150.584z"/>
<path style="fill:#5dbfe9;" d="M372.4,59.2l-37.8,81.899l-29.099,6c-15-6.899-31.798-11.1-49.501-11.1s-34.501,3.9-49.501,10.8
	l-31.198-18.9l-36.899-68.101l12.297-35.7C182.802,9.399,218.5,0,256,0s73.198,9.399,105.3,24.099L372.4,59.2z"/>
<path style="fill:#18a4e0;" d="M305.501,147.1c-15-6.899-31.798-11.1-49.501-11.1V0c37.5,0,73.198,9.399,105.3,24.099L372.4,59.2
	l-37.8,81.899L305.501,147.1z"/>
<path style="fill:#B7E0F6;" d="M364.992,206.457l122.922-55.873c-25.525-55.917-70.583-100.972-126.5-126.495l-55.873,122.915
	C331.842,159.013,352.987,180.156,364.992,206.457z"/>
<g>
	<path style="fill:#CAE8F9;" d="M24.086,150.584l122.922,55.873c12.004-26.294,33.179-47.507,59.399-59.559L150.586,24.09
		C94.746,49.649,49.607,94.677,24.086,150.584z"/>
	<path style="fill:#CAE8F9;" d="M147.008,305.541L24.086,361.414c25.525,55.917,70.587,100.974,126.5,126.497l55.873-122.917
		C180.158,352.984,159.013,331.842,147.008,305.541z"/>
</g>
<path style="fill:#B7E0F6;" d="M305.541,364.994l55.873,122.917c55.913-25.523,100.975-70.58,126.5-126.497l-122.922-55.873
	C352.987,331.842,331.842,352.984,305.541,364.994z"/>
<g>
	<path style="fill:#18A7FC;" d="M301,211c0,14.399-6.899,28.2-18.6,36.599c-7.2,5.101-11.4,13.2-11.4,21.901
		c0,8.399-6.599,15.599-15,15.599s-15-5.7-15-14.099c0-15.601,5.398-29.401,15-39.901c2.402-2.999,5.398-5.4,8.701-7.8
		C268.598,220.3,271,215.799,271,211c0-8.401-6.599-15-15-15s-15,6.599-15,15c0,8.399-6.599,15-15,15s-15-6.601-15-15
		c0-24.901,20.098-45,45-45S301,186.099,301,211z"/>
	<path style="fill:#18A7FC;" d="M271,331c0,8.399-6.599,15-15,15s-15-6.601-15-15c0-8.401,6.599-15,15-15S271,322.599,271,331z"/>
</g>
<g>
</g>
<g>
</g>
<g>
</g>
<g>
</g>
<g>
</g>
<g>
</g>
<g>
</g>
<g>
</g>
<g>
</g>
<g>
</g>
<g>
</g>
<g>
</g>
<g>
</g>
<g>
</g>
<g>
</g>
</svg>
