<?xml version="1.0" encoding="iso-8859-1"?>
<!-- Generator: Adobe Illustrator 19.0.0, SVG Export Plug-In . SVG Version: 6.00 Build 0)  -->
<svg version="1.1" id="Capa_1" xmlns="http://www.w3.org/2000/svg" xmlns:xlink="http://www.w3.org/1999/xlink" x="0px" y="0px"
	 viewBox="0 0 512 512" style="enable-background:new 0 0 512 512;" xml:space="preserve">
<path style="fill:#F1F1F2;" d="M413.721,32.828L356.747,0l-56.973,32.828L242.801,0l-56.973,32.828L128.855,0v512H426.92
	c24.176,0,43.774-19.598,43.774-43.774V0L413.721,32.828z"/>
<g>
	<path style="fill:#E6E6E6;" d="M413.721,32.828L356.747,0l-56.973,32.828V512H426.92c24.176,0,43.774-19.598,43.774-43.774V0
		L413.721,32.828z"/>
	<path style="fill:#E6E6E6;" d="M426.92,512c-24.176,0-43.774-19.598-43.774-43.774v-42.501H41.306v42.501
		C41.306,492.402,60.904,512,85.08,512H426.92"/>
</g>
<path style="fill:#CCCCCC;" d="M426.92,512c-24.176,0-43.774-19.598-43.774-43.774v-42.501h-83.371V512H426.92"/>
<g>
	<rect x="177.81" y="120.36" style="fill:#999999;" width="243.94" height="30"/>
	<rect x="177.81" y="182.6" style="fill:#999999;" width="243.94" height="30"/>
</g>
<g>
	<rect x="299.77" y="120.36" style="fill:#808080;" width="121.97" height="30"/>
	<rect x="299.77" y="182.6" style="fill:#808080;" width="121.97" height="30"/>
</g>
<rect x="177.81" y="244.83" style="fill:#999999;" width="121.97" height="30"/>
<g>
</g>
<g>
</g>
<g>
</g>
<g>
</g>
<g>
</g>
<g>
</g>
<g>
</g>
<g>
</g>
<g>
</g>
<g>
</g>
<g>
</g>
<g>
</g>
<g>
</g>
<g>
</g>
<g>
</g>
</svg>
