<svg id="Layer_3" enable-background="new 0 0 64 64" height="512" viewBox="0 0 64 64" width="512" xmlns="http://www.w3.org/2000/svg"><g><path d="m51 62v-60l-5 5-5-5-5 5-4.5-4.5-4.5 4.5-5-5-5 5-5-5-5 5-5-5v51c0 4.971 4.029 9 9 9z" fill="#c7e2fc"/><path d="m37 15.917c0-3.09-.372-6.091-1.056-8.972l-4.444-4.445-4.5 4.5-5-5-5 5-5-5-5 5-5-5v51c0 .503.052.992.131 1.473 19.578-1.947 34.869-18.465 34.869-38.556z" fill="#ebf7fe"/><path d="m51 53v9h2c4.971 0 9-4.029 9-9z" fill="#4d5d7a"/><path d="m10 12h32v4h-32z" fill="#4d5d7a"/><path d="m37 54h8v4h-8z" fill="#243242"/><g><path d="m7 21h16v2h-16z" fill="#4d5d7a"/></g><g><path d="m30 21h16v2h-16z" fill="#4d5d7a"/></g><g><path d="m7 27h16v2h-16z" fill="#4d5d7a"/></g><g><path d="m30 27h16v2h-16z" fill="#4d5d7a"/></g><g><path d="m7 33h16v2h-16z" fill="#4d5d7a"/></g><g><path d="m30 33h16v2h-16z" fill="#4d5d7a"/></g><g><path d="m7 39h39v2h-39z" fill="#4d5d7a"/></g><g><path d="m7 45h39v2h-39z" fill="#4d5d7a"/></g></g></svg>