<svg id="icons" height="512" viewBox="0 0 64 64" width="512" xmlns="http://www.w3.org/2000/svg"><g id="Smartphone-Notification-Email-Online-Mobilephone"><rect fill="#5aaae7" height="58" rx="4.98" width="34" x="15" y="3"/><path d="m31 30a13 13 0 0 1 -13 13c-.34 0-.67-.01-1-.04a12.084 12.084 0 0 1 -2-.32v-25.28a12.072 12.072 0 0 1 2-.31 8.269 8.269 0 0 1 1-.05 13 13 0 0 1 13 13z" fill="#3d9ae2"/><path d="m29 28a13 13 0 0 1 -13 13c-.34 0-.67-.01-1-.04a12.993 12.993 0 0 1 0-25.91 8.269 8.269 0 0 1 1-.05 13 13 0 0 1 13 13z" fill="#ffd422"/><path d="m34 53a2.006 2.006 0 0 1 2 2 2.015 2.015 0 0 1 -2 2h-4a2.006 2.006 0 0 1 -2-2 2.015 2.015 0 0 1 2-2z" fill="#e6e7e8"/><path d="m49 33v18h-12a2.006 2.006 0 0 1 -2-2v-14a2.006 2.006 0 0 1 2-2z" fill="#3d9ae2"/><path d="m61 33-12 5.14-1.21.52a1.974 1.974 0 0 1 -1.58 0l-13.21-5.66a2.006 2.006 0 0 1 2-2h24a2.006 2.006 0 0 1 2 2z" fill="#ff9811"/><path d="m61 33v14a2.006 2.006 0 0 1 -2 2h-24a2.006 2.006 0 0 1 -2-2v-14l13.21 5.66a1.974 1.974 0 0 0 1.58 0l1.21-.52z" fill="#ee8700"/><path d="m23 32.27a1.86 1.86 0 0 1 -1-1.58v-2.69a4 4 0 0 0 -2.491-3.7 2 2 0 1 0 -3.018 0 4 4 0 0 0 -2.491 3.7v2.6a1.8 1.8 0 0 1 -.91 1.62 2 2 0 0 0 -1.06 2.12 2.072 2.072 0 0 0 2.08 1.66h2.16a2 2 0 1 0 3.46 0h1.57c1.59 0 2.51-.68 2.67-1.66a1.979 1.979 0 0 0 -.97-2.07z" fill="#f7c700"/><path d="m17.73 34h-3.46a2 2 0 1 0 3.46 0z" fill="#ffa733"/><circle cx="16" cy="21" fill="#ee8700" r="2"/><path d="m21 30.27a1.86 1.86 0 0 1 -1-1.58v-2.69a4 4 0 0 0 -8 0v2.6a1.8 1.8 0 0 1 -.91 1.62 2 2 0 0 0 -1.06 2.12 2.072 2.072 0 0 0 2.08 1.66h7.19c1.59 0 2.51-.68 2.67-1.66a1.979 1.979 0 0 0 -.97-2.07z" fill="#ff9811"/><path d="m23 6h2v2h-2z" fill="#78b9eb"/><path d="m27 6h10v2h-10z" fill="#78b9eb"/><g fill="#1e81ce"><path d="m32 14h2v2h-2z"/><path d="m36 14h8v2h-8z"/><path d="m32 18h12v2h-12z"/><path d="m32 22h12v2h-12z"/></g></g></svg>