<svg id="Capa_1" enable-background="new 0 0 512 512" height="512" viewBox="0 0 512 512" width="512" xmlns="http://www.w3.org/2000/svg"><path d="m467 150h-46v-32.58c17.459-6.192 30-22.865 30-42.42v-75h-90v75c0 19.555 12.541 36.228 30 42.42v32.58h-31.076c-6.597-45.916-43.008-82.327-88.924-88.924v-31.076h-30v31.076c-45.916 6.597-82.327 43.008-88.924 88.924h-31.076v-32.58c17.459-6.192 30-22.865 30-42.42v-75h-90v75c0 19.555 12.541 36.228 30 42.42v32.58h-46c-24.813 0-45 20.187-45 45v185l3 4c30.575 40.764 92.312 49.324 133 13.053 19.672 17.537 47.064 26.425 75 21.649v63.298h-60v30h210v-30h-60v-63.297c27.958 4.779 55.346-4.128 75-21.649 40.628 36.219 102.384 27.77 133-13.054l3-4v-185c0-24.813-20.187-45-45-45zm-76-120h30v45c0 8.271-6.729 15-15 15s-15-6.729-15-15zm-300 0h30v45c0 8.271-6.729 15-15 15s-15-6.729-15-15zm165 60c36.219 0 66.522 25.808 73.491 60h-146.982c6.969-34.192 37.272-60 73.491-60zm-211 90h422c8.271 0 15 6.729 15 15v15h-452v-15c0-8.271 6.729-15 15-15zm226 302h-30v-74.14c5.337-3.08 10.377-6.685 15-10.806 4.624 4.122 9.663 7.727 15 10.806zm117-116-12-16-12 16c-23.945 31.929-72.024 31.965-96-.001l-12-16-12 16c-23.945 31.929-72.024 31.965-96-.001l-12-16-12 16c-23.414 31.222-69.187 31.411-94 3.658v-129.656h452v129.659c-24.834 27.779-70.606 27.532-94-3.659z"/></svg>